<?xml version="1.0" encoding="utf-8"?>
<!-- Generator: Adobe Illustrator 27.2.0, SVG Export Plug-In . SVG Version: 6.00 Build 0)  -->
<svg version="1.1" id="Слой_1" xmlns="http://www.w3.org/2000/svg" xmlns:xlink="http://www.w3.org/1999/xlink" x="0px" y="0px"
	 viewBox="0 0 742.98 65.38" style="enable-background:new 0 0 742.98 65.38;" xml:space="preserve">
<style type="text/css">
	.st0{fill:#F3C018;}
	.st1{fill:#0097C1;}
	.st2{fill:#579DAD;}
	.st3{fill:#7EA398;}
	.st4{fill:#9DAA82;}
	.st5{fill:#BBB169;}
	.st6{fill:#D8B848;}
	.st7{fill:#469BB4;}
	.st8{fill:#659FA6;}
	.st9{fill:#93A78A;}
	.st10{fill:#A7AC7B;}
	.st11{fill:#CEB654;}
	.st12{fill:#E1BB3B;}
</style>
<path class="st0" d="M133.15-93.66l1.59,4.9c0.7,2.17,2.72,3.63,5,3.63h5.16c5.1,0,7.21,6.52,3.09,9.51l-4.17,3.03
	c-1.84,1.34-2.61,3.71-1.91,5.88l1.59,4.9c1.57,4.85-3.97,8.88-8.09,5.88l-4.17-3.03c-1.84-1.34-4.34-1.34-6.18,0l-4.17,3.03
	c-4.12,2.99-9.67-1.03-8.09-5.88l1.59-4.9c0.7-2.17-0.07-4.54-1.91-5.88l-4.17-3.03c-4.12-2.99-2-9.51,3.09-9.51h5.16
	c2.28,0,4.3-1.47,5-3.63l1.59-4.9C124.72-98.51,131.58-98.51,133.15-93.66z"/>
<g>
	<path class="st1" d="M29.28-255.84l2.46,7.56c1.09,3.34,4.2,5.6,7.71,5.6h7.95c7.85,0,11.12,10.05,4.77,14.67l-6.43,4.67
		c-2.84,2.06-4.03,5.72-2.95,9.06l2.46,7.56c2.43,7.47-6.12,13.68-12.48,9.06l-6.43-4.67c-2.84-2.06-6.69-2.06-9.53,0l-6.43,4.67
		c-6.35,4.62-14.9-1.59-12.48-9.06l2.46-7.56c1.09-3.34-0.1-7-2.95-9.06l-6.43-4.67c-6.35-4.62-3.09-14.67,4.77-14.67h7.95
		c3.51,0,6.63-2.26,7.71-5.6l2.46-7.56C16.28-263.31,26.85-263.31,29.28-255.84z"/>
	<path class="st2" d="M96.38-196.57l2.46,7.56c1.09,3.34,4.2,5.6,7.71,5.6h7.95c7.85,0,11.12,10.05,4.77,14.67l-6.43,4.67
		c-2.84,2.06-4.03,5.72-2.95,9.06l2.46,7.56c2.43,7.47-6.12,13.68-12.48,9.06l-6.43-4.67c-2.84-2.06-6.69-2.06-9.53,0l-6.43,4.67
		c-6.35,4.62-14.9-1.59-12.48-9.06l2.46-7.56c1.09-3.34-0.1-7-2.95-9.06l-6.43-4.67c-6.35-4.62-3.09-14.67,4.77-14.67h7.95
		c3.51,0,6.63-2.26,7.71-5.6l2.46-7.56C83.38-204.04,93.95-204.04,96.38-196.57z"/>
	<path class="st3" d="M164.33-216.04l2.46,7.56c1.09,3.34,4.2,5.6,7.71,5.6h7.95c7.85,0,11.12,10.05,4.77,14.67l-6.43,4.67
		c-2.84,2.06-4.03,5.72-2.95,9.06l2.46,7.56c2.43,7.47-6.12,13.68-12.48,9.06l-6.43-4.67c-2.84-2.06-6.69-2.06-9.53,0l-6.43,4.67
		c-6.35,4.62-14.9-1.59-12.48-9.06l2.46-7.56c1.09-3.34-0.1-7-2.95-9.06l-6.43-4.67c-6.35-4.62-3.09-14.67,4.77-14.67h7.95
		c3.51,0,6.63-2.26,7.71-5.6l2.46-7.56C151.34-223.51,161.9-223.51,164.33-216.04z"/>
	<path class="st4" d="M232.74-272.18l2.46,7.56c1.09,3.34,4.2,5.6,7.71,5.6h7.95c7.85,0,11.12,10.05,4.77,14.67l-6.43,4.67
		c-2.84,2.06-4.03,5.72-2.95,9.06l2.46,7.56c2.43,7.47-6.12,13.68-12.48,9.06l-6.43-4.67c-2.84-2.06-6.69-2.06-9.53,0l-6.43,4.67
		c-6.35,4.62-14.9-1.59-12.48-9.06l2.46-7.56c1.09-3.34-0.1-7-2.95-9.06l-6.43-4.67c-6.35-4.62-3.09-14.67,4.77-14.67h7.95
		c3.51,0,6.63-2.26,7.71-5.6l2.46-7.56C219.75-279.65,230.32-279.65,232.74-272.18z"/>
	<path class="st5" d="M301.21-322.88l2.46,7.56c1.09,3.34,4.2,5.6,7.71,5.6h7.95c7.85,0,11.12,10.05,4.77,14.67l-6.43,4.67
		c-2.84,2.06-4.03,5.72-2.95,9.06l2.46,7.56c2.43,7.47-6.12,13.68-12.48,9.06l-6.43-4.67c-2.84-2.06-6.69-2.06-9.53,0l-6.43,4.67
		c-6.35,4.62-14.9-1.59-12.48-9.06l2.46-7.56c1.09-3.34-0.1-7-2.95-9.06l-6.43-4.67c-6.35-4.62-3.09-14.67,4.77-14.67h7.95
		c3.51,0,6.63-2.26,7.71-5.6l2.46-7.56C288.21-330.34,298.78-330.34,301.21-322.88z"/>
	<path class="st6" d="M376.35-325.47l2.46,7.56c1.09,3.34,4.2,5.6,7.71,5.6h7.95c7.85,0,11.12,10.05,4.77,14.67l-6.43,4.67
		c-2.84,2.06-4.03,5.72-2.95,9.06l2.46,7.56c2.43,7.47-6.12,13.68-12.48,9.06l-6.43-4.67c-2.84-2.06-6.69-2.06-9.53,0l-6.43,4.67
		c-6.35,4.62-14.9-1.59-12.48-9.06l2.46-7.56c1.09-3.34-0.1-7-2.95-9.06l-6.43-4.67c-6.35-4.62-3.09-14.67,4.77-14.67h7.95
		c3.51,0,6.63-2.26,7.71-5.6l2.46-7.56C363.36-332.94,373.93-332.94,376.35-325.47z"/>
	<path class="st0" d="M416.21-255.84l2.46,7.56c1.09,3.34,4.2,5.6,7.71,5.6h7.95c7.85,0,11.12,10.05,4.77,14.67l-6.43,4.67
		c-2.84,2.06-4.03,5.72-2.95,9.06l2.46,7.56c2.43,7.47-6.12,13.68-12.48,9.06l-6.43-4.67c-2.84-2.06-6.69-2.06-9.53,0l-6.43,4.67
		c-6.35,4.62-14.9-1.59-12.48-9.06l2.46-7.56c1.09-3.34-0.1-7-2.95-9.06l-6.43-4.67c-6.35-4.62-3.09-14.67,4.77-14.67h7.95
		c3.51,0,6.63-2.26,7.71-5.6l2.46-7.56C403.21-263.31,413.78-263.31,416.21-255.84z"/>
</g>
<g>
	<path class="st1" d="M701.32,5.6l-2.46,7.56c-1.09,3.34-4.2,5.6-7.71,5.6h-7.95c-7.85,0-11.12,10.05-4.77,14.67l6.43,4.67
		c2.84,2.06,4.03,5.72,2.95,9.06l-2.46,7.56c-2.43,7.47,6.12,13.68,12.48,9.06l6.43-4.67c2.84-2.06,6.69-2.06,9.53,0l6.43,4.67
		c6.35,4.62,14.9-1.59,12.48-9.06l-2.46-7.56c-1.09-3.34,0.1-7,2.95-9.06l6.43-4.67c6.35-4.62,3.09-14.67-4.77-14.67h-7.95
		c-3.51,0-6.63-2.26-7.71-5.6l-2.46-7.56C714.31-1.87,703.75-1.87,701.32,5.6z"/>
	<path class="st7" d="M626.31,5.6l-2.46,7.56c-1.09,3.34-4.2,5.6-7.71,5.6h-7.95c-7.85,0-11.12,10.05-4.77,14.67l6.43,4.67
		c2.84,2.06,4.03,5.72,2.95,9.06l-2.46,7.56c-2.43,7.47,6.12,13.68,12.48,9.06l6.43-4.67c2.84-2.06,6.69-2.06,9.53,0l6.43,4.67
		c6.35,4.62,14.9-1.59,12.48-9.06l-2.46-7.56c-1.09-3.34,0.1-7,2.95-9.06l6.43-4.67c6.35-4.62,3.09-14.67-4.77-14.67h-7.95
		c-3.51,0-6.63-2.26-7.71-5.6l-2.46-7.56C639.3-1.87,628.74-1.87,626.31,5.6z"/>
	<path class="st8" d="M551.3,5.6l-2.46,7.56c-1.09,3.34-4.2,5.6-7.71,5.6h-7.95c-7.85,0-11.12,10.05-4.77,14.67l6.43,4.67
		c2.84,2.06,4.03,5.72,2.95,9.06l-2.46,7.56c-2.43,7.47,6.12,13.68,12.48,9.06l6.43-4.67c2.84-2.06,6.69-2.06,9.53,0l6.43,4.67
		c6.35,4.62,14.9-1.59,12.48-9.06l-2.46-7.56c-1.09-3.34,0.1-7,2.95-9.06l6.43-4.67c6.35-4.62,3.09-14.67-4.77-14.67h-7.95
		c-3.51,0-6.63-2.26-7.71-5.6l-2.46-7.56C564.3-1.87,553.73-1.87,551.3,5.6z"/>
	<path class="st3" d="M476.29,5.6l-2.46,7.56c-1.09,3.34-4.2,5.6-7.71,5.6h-7.95c-7.85,0-11.12,10.05-4.77,14.67l6.43,4.67
		c2.84,2.06,4.03,5.72,2.95,9.06l-2.46,7.56c-2.43,7.47,6.12,13.68,12.48,9.06l6.43-4.67c2.84-2.06,6.69-2.06,9.53,0l6.43,4.67
		c6.35,4.62,14.9-1.59,12.48-9.06l-2.46-7.56c-1.09-3.34,0.1-7,2.95-9.06l6.43-4.67c6.35-4.62,3.09-14.67-4.77-14.67h-7.95
		c-3.51,0-6.63-2.26-7.71-5.6l-2.46-7.56C489.29-1.87,478.72-1.87,476.29,5.6z"/>
	<path class="st9" d="M401.28,5.6l-2.46,7.56c-1.09,3.34-4.2,5.6-7.71,5.6h-7.95c-7.85,0-11.12,10.05-4.77,14.67l6.43,4.67
		c2.84,2.06,4.03,5.72,2.95,9.06l-2.46,7.56c-2.43,7.47,6.12,13.68,12.48,9.06l6.43-4.67c2.84-2.06,6.69-2.06,9.53,0l6.43,4.67
		c6.35,4.62,14.9-1.59,12.48-9.06l-2.46-7.56c-1.09-3.34,0.1-7,2.95-9.06l6.43-4.67c6.35-4.62,3.09-14.67-4.77-14.67h-7.95
		c-3.51,0-6.63-2.26-7.71-5.6L416.7,5.6C414.28-1.87,403.71-1.87,401.28,5.6z"/>
	<path class="st10" d="M326.27,5.6l-2.46,7.56c-1.09,3.34-4.2,5.6-7.71,5.6h-7.95c-7.85,0-11.12,10.05-4.77,14.67l6.43,4.67
		c2.84,2.06,4.03,5.72,2.95,9.06l-2.46,7.56c-2.43,7.47,6.12,13.68,12.48,9.06l6.43-4.67c2.84-2.06,6.69-2.06,9.53,0l6.43,4.67
		c6.35,4.62,14.9-1.59,12.48-9.06l-2.46-7.56c-1.09-3.34,0.1-7,2.95-9.06l6.43-4.67c6.35-4.62,3.09-14.67-4.77-14.67h-7.95
		c-3.51,0-6.63-2.26-7.71-5.6L341.7,5.6C339.27-1.87,328.7-1.87,326.27,5.6z"/>
	<path class="st5" d="M251.27,5.6l-2.46,7.56c-1.09,3.34-4.2,5.6-7.71,5.6h-7.95c-7.85,0-11.12,10.05-4.77,14.67l6.43,4.67
		c2.84,2.06,4.03,5.72,2.95,9.06l-2.46,7.56c-2.43,7.47,6.12,13.68,12.48,9.06l6.43-4.67c2.84-2.06,6.69-2.06,9.53,0l6.43,4.67
		c6.35,4.62,14.9-1.59,12.48-9.06l-2.46-7.56c-1.09-3.34,0.1-7,2.95-9.06l6.43-4.67c6.35-4.62,3.09-14.67-4.77-14.67h-7.95
		c-3.51,0-6.63-2.26-7.71-5.6l-2.46-7.56C264.26-1.87,253.69-1.87,251.27,5.6z"/>
	<path class="st11" d="M176.26,5.6l-2.46,7.56c-1.09,3.34-4.2,5.6-7.71,5.6h-7.95c-7.85,0-11.12,10.05-4.77,14.67l6.43,4.67
		c2.84,2.06,4.03,5.72,2.95,9.06l-2.46,7.56c-2.43,7.47,6.12,13.68,12.48,9.06l6.43-4.67c2.84-2.06,6.69-2.06,9.53,0l6.43,4.67
		c6.35,4.62,14.9-1.59,12.48-9.06l-2.46-7.56c-1.09-3.34,0.1-7,2.95-9.06l6.43-4.67c6.35-4.62,3.09-14.67-4.77-14.67h-7.95
		c-3.51,0-6.63-2.26-7.71-5.6l-2.46-7.56C189.25-1.87,178.68-1.87,176.26,5.6z"/>
	<path class="st12" d="M101.25,5.6l-2.46,7.56c-1.09,3.34-4.2,5.6-7.71,5.6h-7.95c-7.85,0-11.12,10.05-4.77,14.67l6.43,4.67
		c2.84,2.06,4.03,5.72,2.95,9.06l-2.46,7.56c-2.43,7.47,6.12,13.68,12.48,9.06l6.43-4.67c2.84-2.06,6.69-2.06,9.53,0l6.43,4.67
		c6.35,4.62,14.9-1.59,12.48-9.06l-2.46-7.56c-1.09-3.34,0.1-7,2.95-9.06l6.43-4.67c6.35-4.62,3.09-14.67-4.77-14.67h-7.95
		c-3.51,0-6.63-2.26-7.71-5.6l-2.46-7.56C114.24-1.87,103.67-1.87,101.25,5.6z"/>
	<path class="st0" d="M26.24,5.6l-2.46,7.56c-1.09,3.34-4.2,5.6-7.71,5.6H8.12C0.27,18.76-3,28.81,3.36,33.43l6.43,4.67
		c2.84,2.06,4.03,5.72,2.95,9.06l-2.46,7.56c-2.43,7.47,6.12,13.68,12.48,9.06l6.43-4.67c2.84-2.06,6.69-2.06,9.53,0l6.43,4.67
		c6.35,4.62,14.9-1.59,12.48-9.06l-2.46-7.56c-1.09-3.34,0.1-7,2.95-9.06l6.43-4.67c6.35-4.62,3.09-14.67-4.77-14.67h-7.95
		c-3.51,0-6.63-2.26-7.71-5.6L41.66,5.6C39.23-1.87,28.67-1.87,26.24,5.6z"/>
</g>
</svg>
