<?xml version="1.0" encoding="utf-8"?>
<!-- Generator: Adobe Illustrator 27.2.0, SVG Export Plug-In . SVG Version: 6.00 Build 0)  -->
<svg version="1.1" width="50px" height="30px" id="Слой_1" xmlns="http://www.w3.org/2000/svg" xmlns:xlink="http://www.w3.org/1999/xlink" x="0px" y="0px"
	 viewBox="0 0 454.83 197.48" style="enable-background:new 0 0 454.83 197.48;" xml:space="preserve">
<style type="text/css">
	.st0{fill:#F3C018;}
	.st1{fill:#0097C1;}
	.st2{fill:#579DAD;}
	.st3{fill:#7EA398;}
	.st4{fill:#9DAA82;}
	.st5{fill:#BBB169;}
	.st6{fill:#D8B848;}
</style>
<g>
	<path class="st1" d="M41.66,77.85l2.46,7.56c1.09,3.34,4.2,5.6,7.71,5.6h7.95c7.85,0,11.12,10.05,4.77,14.67l-6.43,4.67
		c-2.84,2.06-4.03,5.72-2.95,9.06l2.46,7.56c2.43,7.47-6.12,13.68-12.48,9.06l-6.43-4.67c-2.84-2.06-6.69-2.06-9.53,0l-6.43,4.67
		c-6.35,4.62-14.9-1.59-12.48-9.06l2.46-7.56c1.09-3.34-0.1-7-2.95-9.06l-6.43-4.67C-3,101.06,0.27,91.01,8.12,91.01h7.95
		c3.51,0,6.63-2.26,7.71-5.6l2.46-7.56C28.67,70.38,39.23,70.38,41.66,77.85z"/>
	<path class="st2" d="M108.76,137.13l2.46,7.56c1.09,3.34,4.2,5.6,7.71,5.6h7.95c7.85,0,11.12,10.05,4.77,14.67l-6.43,4.67
		c-2.84,2.06-4.03,5.72-2.95,9.06l2.46,7.56c2.43,7.47-6.12,13.68-12.48,9.06l-6.43-4.67c-2.84-2.06-6.69-2.06-9.53,0l-6.43,4.67
		c-6.35,4.62-14.9-1.59-12.48-9.06l2.46-7.56c1.09-3.34-0.1-7-2.95-9.06l-6.43-4.67c-6.35-4.62-3.09-14.67,4.77-14.67h7.95
		c3.51,0,6.63-2.26,7.71-5.6l2.46-7.56C95.76,129.66,106.33,129.66,108.76,137.13z"/>
	<path class="st3" d="M176.71,117.65l2.46,7.56c1.09,3.34,4.2,5.6,7.71,5.6h7.95c7.85,0,11.12,10.05,4.77,14.67l-6.43,4.67
		c-2.84,2.06-4.03,5.72-2.95,9.06l2.46,7.56c2.43,7.47-6.12,13.68-12.48,9.06l-6.43-4.67c-2.84-2.06-6.69-2.06-9.53,0l-6.43,4.67
		c-6.35,4.62-14.9-1.59-12.48-9.06l2.46-7.56c1.09-3.34-0.1-7-2.95-9.06l-6.43-4.67c-6.35-4.62-3.09-14.67,4.77-14.67h7.95
		c3.51,0,6.63-2.26,7.71-5.6l2.46-7.56C163.72,110.18,174.29,110.18,176.71,117.65z"/>
	<path class="st4" d="M245.12,61.52l2.46,7.56c1.09,3.34,4.2,5.6,7.71,5.6h7.95c7.85,0,11.12,10.05,4.77,14.67l-6.43,4.67
		c-2.84,2.06-4.03,5.72-2.95,9.06l2.46,7.56c2.43,7.47-6.12,13.68-12.48,9.06l-6.43-4.67c-2.84-2.06-6.69-2.06-9.53,0l-6.43,4.67
		c-6.35,4.62-14.9-1.59-12.48-9.06l2.46-7.56c1.09-3.34-0.1-7-2.95-9.06l-6.43-4.67c-6.35-4.62-3.09-14.67,4.77-14.67h7.95
		c3.51,0,6.63-2.26,7.71-5.6l2.46-7.56C232.13,54.05,242.7,54.05,245.12,61.52z"/>
	<path class="st5" d="M313.59,10.82l2.46,7.56c1.09,3.34,4.2,5.6,7.71,5.6h7.95c7.85,0,11.12,10.05,4.77,14.67l-6.43,4.67
		c-2.84,2.06-4.03,5.72-2.95,9.06l2.46,7.56c2.43,7.47-6.12,13.68-12.48,9.06l-6.43-4.67c-2.84-2.06-6.69-2.06-9.53,0l-6.43,4.67
		c-6.35,4.62-14.9-1.59-12.48-9.06l2.46-7.56c1.09-3.34-0.1-7-2.95-9.06l-6.43-4.67c-6.35-4.62-3.09-14.67,4.77-14.67H288
		c3.51,0,6.63-2.26,7.71-5.6l2.46-7.56C300.59,3.35,311.16,3.35,313.59,10.82z"/>
	<path class="st6" d="M388.74,8.22l2.46,7.56c1.09,3.34,4.2,5.6,7.71,5.6h7.95c7.85,0,11.12,10.05,4.77,14.67l-6.43,4.67
		c-2.84,2.06-4.03,5.72-2.95,9.06l2.46,7.56c2.43,7.47-6.12,13.68-12.48,9.06l-6.43-4.67c-2.84-2.06-6.69-2.06-9.53,0l-6.43,4.67
		c-6.35,4.62-14.9-1.59-12.48-9.06l2.46-7.56c1.09-3.34-0.1-7-2.95-9.06l-6.43-4.67c-6.35-4.62-3.09-14.67,4.77-14.67h7.95
		c3.51,0,6.63-2.26,7.71-5.6l2.46-7.56C375.74,0.75,386.31,0.75,388.74,8.22z"/>
	<path class="st0" d="M428.59,77.85l2.46,7.56c1.09,3.34,4.2,5.6,7.71,5.6h7.95c7.85,0,11.12,10.05,4.77,14.67l-6.43,4.67
		c-2.84,2.06-4.03,5.72-2.95,9.06l2.46,7.56c2.43,7.47-6.12,13.68-12.48,9.06l-6.43-4.67c-2.84-2.06-6.69-2.06-9.53,0l-6.43,4.67
		c-6.35,4.62-14.9-1.59-12.48-9.06l2.46-7.56c1.09-3.34-0.1-7-2.95-9.06l-6.43-4.67c-6.35-4.62-3.09-14.67,4.77-14.67H403
		c3.51,0,6.63-2.26,7.71-5.6l2.46-7.56C415.6,70.38,426.16,70.38,428.59,77.85z"/>
</g>
</svg>
