<?xml version="1.0" encoding="utf-8"?>
<!-- Generator: Adobe Illustrator 27.2.0, SVG Export Plug-In . SVG Version: 6.00 Build 0)  -->
<svg version="1.1" width="16px" height="16px" id="Слой_1" xmlns="http://www.w3.org/2000/svg" xmlns:xlink="http://www.w3.org/1999/xlink" x="0px" y="0px"
	 viewBox="0 0 44.05 42.41" style="enable-background:new 0 0 44.05 42.41;" xml:space="preserve">
<style type="text/css">
	.st0{fill:#0097C1;}
	.st1{fill:#F3C018;}
</style>
<path class="st1" d="M27.03,3.63l1.59,4.9c0.7,2.17,2.72,3.63,5,3.63h5.16c5.1,0,7.21,6.52,3.09,9.51l-4.17,3.03
	c-1.84,1.34-2.61,3.71-1.91,5.88l1.59,4.9c1.57,4.85-3.97,8.88-8.09,5.88l-4.17-3.03c-1.84-1.34-4.34-1.34-6.18,0l-4.17,3.03
	c-4.12,2.99-9.67-1.03-8.09-5.88l1.59-4.9c0.7-2.17-0.07-4.54-1.91-5.88l-4.17-3.03c-4.12-2.99-2-9.51,3.09-9.51h5.16
	c2.28,0,4.3-1.47,5-3.63l1.59-4.9C18.6-1.21,25.45-1.21,27.03,3.63z"/>
</svg>
